<svg width="45" height="45" viewBox="0 0 45 45" fill="none" xmlns="http://www.w3.org/2000/svg">
<path d="M22.3805 28.2223C25.5365 28.2223 28.0948 25.6107 28.0948 22.389C28.0948 19.1673 25.5365 16.5557 22.3805 16.5557C19.2246 16.5557 16.6663 19.1673 16.6663 22.389C16.6663 25.6107 19.2246 28.2223 22.3805 28.2223Z" stroke="black" stroke-width="2" stroke-linecap="round" stroke-linejoin="round"/>
<path d="M36.4761 28.2222C36.2225 28.8087 36.1469 29.4593 36.2589 30.09C36.371 30.7208 36.6655 31.3028 37.1047 31.7611L37.2189 31.8778C37.5731 32.239 37.8541 32.6679 38.0458 33.14C38.2375 33.6121 38.3362 34.1181 38.3362 34.6292C38.3362 35.1402 38.2375 35.6463 38.0458 36.1184C37.8541 36.5905 37.5731 37.0194 37.2189 37.3806C36.8651 37.7421 36.445 38.029 35.9825 38.2247C35.5201 38.4204 35.0243 38.5211 34.5237 38.5211C34.0231 38.5211 33.5274 38.4204 33.0649 38.2247C32.6024 38.029 32.1823 37.7421 31.8285 37.3806L31.7142 37.2639C31.2653 36.8156 30.6951 36.5149 30.0772 36.4005C29.4593 36.2862 28.822 36.3634 28.2475 36.6222C27.6841 36.8687 27.2037 37.278 26.8652 37.7997C26.5268 38.3213 26.3452 38.9326 26.3428 39.5583V39.8889C26.3428 40.9203 25.9414 41.9094 25.227 42.6387C24.5125 43.3681 23.5436 43.7778 22.5332 43.7778C21.5229 43.7778 20.5539 43.3681 19.8395 42.6387C19.1251 41.9094 18.7237 40.9203 18.7237 39.8889V39.7139C18.709 39.0703 18.5049 38.4461 18.138 37.9225C17.7711 37.3988 17.2584 37 16.6666 36.7778C16.0921 36.5189 15.4548 36.4417 14.8369 36.5561C14.219 36.6705 13.6488 36.9712 13.1999 37.4194L13.0856 37.5361C12.7318 37.8977 12.3117 38.1845 11.8492 38.3802C11.3867 38.5759 10.891 38.6767 10.3904 38.6767C9.88974 38.6767 9.39402 38.5759 8.93155 38.3802C8.46908 38.1845 8.04894 37.8977 7.69513 37.5361C7.34094 37.1749 7.05995 36.746 6.86824 36.2739C6.67653 35.8018 6.57785 35.2958 6.57785 34.7847C6.57785 34.2737 6.67653 33.7676 6.86824 33.2955C7.05995 32.8234 7.34094 32.3945 7.69513 32.0333L7.80942 31.9167C8.24854 31.4584 8.54311 30.8764 8.65514 30.2456C8.76718 29.6148 8.69154 28.9643 8.43799 28.3778C8.19654 27.8027 7.79562 27.3122 7.28459 26.9667C6.77356 26.6212 6.17473 26.4358 5.5618 26.4333H5.23799C4.22764 26.4333 3.25867 26.0236 2.54425 25.2943C1.82983 24.565 1.42847 23.5758 1.42847 22.5444C1.42847 21.513 1.82983 20.5239 2.54425 19.7946C3.25867 19.0653 4.22764 18.6556 5.23799 18.6556H5.40942C6.03988 18.6405 6.65133 18.4322 7.16427 18.0577C7.67722 17.6831 8.06793 17.1598 8.28561 16.5556C8.53916 15.9691 8.6148 15.3185 8.50276 14.6877C8.39073 14.057 8.09616 13.4749 7.65704 13.0167L7.54275 12.9C7.18856 12.5388 6.90757 12.1099 6.71586 11.6378C6.52415 11.1657 6.42547 10.6597 6.42547 10.1486C6.42547 9.63755 6.52415 9.1315 6.71586 8.6594C6.90757 8.1873 7.18856 7.7584 7.54275 7.39722C7.89655 7.03565 8.3167 6.74881 8.77917 6.5531C9.24164 6.3574 9.73736 6.25666 10.238 6.25666C10.7386 6.25666 11.2343 6.3574 11.6968 6.5531C12.1593 6.74881 12.5794 7.03565 12.9332 7.39722L13.0475 7.51389C13.4964 7.96216 14.0666 8.26286 14.6845 8.37723C15.3024 8.4916 15.9397 8.41439 16.5142 8.15556H16.6666C17.2299 7.90907 17.7104 7.4998 18.0488 6.97813C18.3873 6.45645 18.5689 5.84514 18.5713 5.21944V4.88889C18.5713 3.85749 18.9727 2.86834 19.6871 2.13903C20.4015 1.40972 21.3705 1 22.3808 1C23.3912 1 24.3602 1.40972 25.0746 2.13903C25.789 2.86834 26.1904 3.85749 26.1904 4.88889V5.06389C26.1928 5.68959 26.3744 6.3009 26.7129 6.82257C27.0513 7.34425 27.5318 7.75352 28.0951 8C28.6696 8.25884 29.3069 8.33605 29.9248 8.22168C30.5427 8.10731 31.1129 7.8066 31.5618 7.35833L31.6761 7.24167C32.0299 6.88009 32.45 6.59325 32.9125 6.39755C33.375 6.20184 33.8707 6.10111 34.3713 6.10111C34.872 6.10111 35.3677 6.20184 35.8301 6.39755C36.2926 6.59325 36.7128 6.88009 37.0666 7.24167C37.4208 7.60284 37.7017 8.03174 37.8935 8.50384C38.0852 8.97595 38.1838 9.482 38.1838 9.99306C38.1838 10.5041 38.0852 11.0102 37.8935 11.4823C37.7017 11.9544 37.4208 12.3833 37.0666 12.7444L36.9523 12.8611C36.5132 13.3194 36.2186 13.9014 36.1066 14.5322C35.9945 15.163 36.0702 15.8135 36.3237 16.4V16.5556C36.5652 17.1307 36.9661 17.6211 37.4771 17.9666C37.9881 18.3121 38.587 18.4975 39.1999 18.5H39.5237C40.5341 18.5 41.503 18.9097 42.2174 19.639C42.9319 20.3683 43.3332 21.3575 43.3332 22.3889C43.3332 23.4203 42.9319 24.4094 42.2174 25.1387C41.503 25.8681 40.5341 26.2778 39.5237 26.2778H39.3523C38.7393 26.2803 38.1405 26.4657 37.6295 26.8112C37.1185 27.1566 36.7175 27.6471 36.4761 28.2222Z" stroke="black" stroke-width="2" stroke-linecap="round" stroke-linejoin="round"/>
</svg>
