<svg width="50" height="44" viewBox="0 0 50 44" fill="none" xmlns="http://www.w3.org/2000/svg">
<path d="M33 42V37.6667C33 35.3681 32.129 33.1637 30.5787 31.5384C29.0284 29.9131 26.9258 29 24.7333 29H10.2667C8.07421 29 5.97155 29.9131 4.42125 31.5384C2.87095 33.1637 2 35.3681 2 37.6667V42" stroke="black" stroke-width="3" stroke-linecap="round" stroke-linejoin="round"/>
<path d="M17.5 20C22.1944 20 26 15.9706 26 11C26 6.02944 22.1944 2 17.5 2C12.8056 2 9 6.02944 9 11C9 15.9706 12.8056 20 17.5 20Z" stroke="black" stroke-width="3" stroke-linecap="round" stroke-linejoin="round"/>
<path d="M48 20H35" stroke="black" stroke-width="3" stroke-linecap="round" stroke-linejoin="round"/>
</svg>
